<svg width="20" height="20" viewBox="0 0 20 20" fill="none" xmlns="http://www.w3.org/2000/svg">
<path d="M15.1515 7.81813H10.339C9.96318 7.81813 9.65152 7.50646 9.65152 7.13063C9.65152 6.7548 9.96318 6.44313 10.339 6.44313H15.1515C15.3339 6.44313 15.5087 6.51556 15.6377 6.6445C15.7666 6.77343 15.839 6.9483 15.839 7.13063C15.839 7.31297 15.7666 7.48784 15.6377 7.61677C15.5087 7.7457 15.3339 7.81813 15.1515 7.81813ZM5.52652 8.5148C5.35235 8.5148 5.17818 8.45063 5.04068 8.31313L4.35318 7.62563C4.08735 7.3598 4.08735 6.9198 4.35318 6.65397C4.61902 6.38813 5.05902 6.38813 5.32485 6.65397L5.52652 6.85563L7.10318 5.27896C7.36902 5.01313 7.80902 5.01313 8.07485 5.27896C8.34068 5.5448 8.34068 5.9848 8.07485 6.25063L6.01235 8.31313C5.88354 8.4421 5.70879 8.51464 5.52652 8.5148ZM15.1515 14.2348H10.339C9.96318 14.2348 9.65152 13.9231 9.65152 13.5473C9.65152 13.1715 9.96318 12.8598 10.339 12.8598H15.1515C15.3339 12.8598 15.5087 12.9322 15.6377 13.0612C15.7666 13.1901 15.839 13.365 15.839 13.5473C15.839 13.7296 15.7666 13.9045 15.6377 14.0334C15.5087 14.1624 15.3339 14.2348 15.1515 14.2348ZM5.52652 14.9315C5.35235 14.9315 5.17818 14.8673 5.04068 14.7298L4.35318 14.0423C4.08735 13.7765 4.08735 13.3365 4.35318 13.0706C4.61902 12.8048 5.05902 12.8048 5.32485 13.0706L5.52652 13.2723L7.10318 11.6956C7.36902 11.4298 7.80902 11.4298 8.07485 11.6956C8.34068 11.9615 8.34068 12.4015 8.07485 12.6673L6.01235 14.7298C5.88354 14.8588 5.70879 14.9313 5.52652 14.9315Z" fill="#64748B"/>
<path d="M12.7499 19.8541H7.24992C2.27242 19.8541 0.145752 17.7274 0.145752 12.7499V7.24992C0.145752 2.27242 2.27242 0.145752 7.24992 0.145752H12.7499C17.7274 0.145752 19.8541 2.27242 19.8541 7.24992V12.7499C19.8541 17.7274 17.7274 19.8541 12.7499 19.8541ZM7.24992 1.52075C3.02409 1.52075 1.52075 3.02409 1.52075 7.24992V12.7499C1.52075 16.9758 3.02409 18.4791 7.24992 18.4791H12.7499C16.9758 18.4791 18.4791 16.9758 18.4791 12.7499V7.24992C18.4791 3.02409 16.9758 1.52075 12.7499 1.52075H7.24992Z" fill="#64748B"/>
</svg>
