<svg width="73" height="73" viewBox="0 0 73 73" fill="none" xmlns="http://www.w3.org/2000/svg">
<path d="M49.4118 6.19531H24.2718C13.3518 6.19531 6.8418 12.7053 6.8418 23.6253V48.7653C6.8418 59.6853 13.3518 66.1953 24.2718 66.1953H49.4118C60.3318 66.1953 66.8418 59.6853 66.8418 48.7653V23.6253C66.8418 12.7053 60.3318 6.19531 49.4118 6.19531ZM30.7518 44.8953L24.0018 51.6453C23.5518 52.0953 22.9818 52.3053 22.4118 52.3053C21.8418 52.3053 21.2418 52.0953 20.8218 51.6453L18.5718 49.3953C17.6718 48.5253 17.6718 47.0853 18.5718 46.2153C19.4418 45.3453 20.8518 45.3453 21.7518 46.2153L22.4118 46.8753L27.5718 41.7153C28.4418 40.8453 29.8518 40.8453 30.7518 41.7153C31.6218 42.5853 31.6218 44.0253 30.7518 44.8953ZM30.7518 23.8953L24.0018 30.6453C23.5518 31.0953 22.9818 31.3053 22.4118 31.3053C21.8418 31.3053 21.2418 31.0953 20.8218 30.6453L18.5718 28.3953C17.6718 27.5253 17.6718 26.0853 18.5718 25.2153C19.4418 24.3453 20.8518 24.3453 21.7518 25.2153L22.4118 25.8753L27.5718 20.7153C28.4418 19.8453 29.8518 19.8453 30.7518 20.7153C31.6218 21.5853 31.6218 23.0253 30.7518 23.8953ZM53.5218 50.0553H37.7718C36.5418 50.0553 35.5218 49.0353 35.5218 47.8053C35.5218 46.5753 36.5418 45.5553 37.7718 45.5553H53.5218C54.1185 45.5553 54.6908 45.7924 55.1128 46.2143C55.5347 46.6363 55.7718 47.2086 55.7718 47.8053C55.7718 48.4021 55.5347 48.9743 55.1128 49.3963C54.6908 49.8183 54.1185 50.0553 53.5218 50.0553ZM53.5218 29.0553H37.7718C36.5418 29.0553 35.5218 28.0353 35.5218 26.8053C35.5218 25.5753 36.5418 24.5553 37.7718 24.5553H53.5218C54.1185 24.5553 54.6908 24.7924 55.1128 25.2143C55.5347 25.6363 55.7718 26.2086 55.7718 26.8053C55.7718 27.4021 55.5347 27.9743 55.1128 28.3963C54.6908 28.8183 54.1185 29.0553 53.5218 29.0553Z" fill="white"/>
</svg>
